<?xml version="1.0" encoding="UTF-8" ?>
<svg version="1.1" width="128" height="128" xmlns="http://www.w3.org/2000/svg" shape-rendering="crispEdges">
<rect x="70" y="29" width="6" height="10" fill="#7F8E44" />
<rect x="76" y="31" width="2" height="8" fill="#7F8E44" />
<rect x="82" y="31" width="6" height="8" fill="#7F8E44" />
<rect x="68" y="33" width="2" height="4" fill="#7F8E44" />
<rect x="80" y="33" width="2" height="6" fill="#7F8E44" />
<rect x="88" y="33" width="2" height="6" fill="#7F8E44" />
<rect x="56" y="37" width="2" height="6" fill="#E1BF89" />
<rect x="64" y="37" width="2" height="6" fill="#E1BF89" />
<rect x="54" y="39" width="2" height="2" fill="#E1BF89" />
<rect x="58" y="39" width="6" height="4" fill="#E1BF89" />
<rect x="66" y="39" width="2" height="4" fill="#E1BF89" />
<rect x="78" y="39" width="2" height="10" fill="#7F8E44" />
<rect x="52" y="41" width="2" height="6" fill="#E1BF89" />
<rect x="54" y="41" width="2" height="2" fill="#B29476" />
<rect x="68" y="41" width="2" height="2" fill="#B29476" />
<rect x="70" y="41" width="4" height="2" fill="#7F8E44" />
<rect x="76" y="41" width="2" height="2" fill="#7F8E44" />
<rect x="80" y="41" width="10" height="2" fill="#7F8E44" />
<rect x="50" y="43" width="2" height="2" fill="#E1BF89" />
<rect x="54" y="43" width="2" height="18" fill="#E1BF89" />
<rect x="56" y="43" width="4" height="2" fill="#B29476" />
<rect x="60" y="43" width="4" height="2" fill="#E1BF89" />
<rect x="64" y="43" width="4" height="2" fill="#B29476" />
<rect x="68" y="43" width="4" height="6" fill="#E1BF89" />
<rect x="72" y="43" width="4" height="2" fill="#7F8E44" />
<rect x="82" y="43" width="4" height="6" fill="#586335" />
<rect x="86" y="43" width="6" height="2" fill="#7F8E44" />
<rect x="50" y="45" width="2" height="4" fill="#B29476" />
<rect x="56" y="45" width="6" height="12" fill="#E1BF89" />
<rect x="62" y="45" width="2" height="2" fill="#B9451D" />
<rect x="64" y="45" width="4" height="14" fill="#E1BF89" />
<rect x="72" y="45" width="2" height="2" fill="#7F8E44" />
<rect x="74" y="45" width="2" height="2" fill="#586335" />
<rect x="86" y="45" width="2" height="4" fill="#586335" />
<rect x="88" y="45" width="4" height="2" fill="#7F8E44" />
<rect x="52" y="47" width="2" height="4" fill="#B29476" />
<rect x="62" y="47" width="2" height="12" fill="#E1BF89" />
<rect x="72" y="47" width="2" height="2" fill="#586335" />
<rect x="88" y="47" width="2" height="2" fill="#586335" />
<rect x="68" y="49" width="2" height="2" fill="#E1BF89" />
<rect x="70" y="49" width="2" height="2" fill="#B29476" />
<rect x="72" y="49" width="2" height="8" fill="#E1BF89" />
<rect x="76" y="49" width="6" height="6" fill="#E1BF89" />
<rect x="68" y="51" width="2" height="2" fill="#B29476" />
<rect x="70" y="51" width="2" height="6" fill="#E1BF89" />
<rect x="74" y="51" width="2" height="4" fill="#E1BF89" />
<rect x="52" y="53" width="2" height="10" fill="#E1BF89" />
<rect x="68" y="53" width="2" height="8" fill="#E1BF89" />
<rect x="78" y="55" width="2" height="12" fill="#7F8E44" />
<rect x="56" y="57" width="2" height="2" fill="#7F8E44" />
<rect x="58" y="57" width="4" height="2" fill="#E1BF89" />
<rect x="50" y="59" width="2" height="2" fill="#FFFFFF" />
<rect x="56" y="59" width="2" height="2" fill="#D5DC1D" />
<rect x="58" y="59" width="2" height="2" fill="#ADB834" />
<rect x="60" y="59" width="2" height="2" fill="#586335" />
<rect x="62" y="59" width="4" height="2" fill="#7F8E44" />
<rect x="66" y="59" width="2" height="2" fill="#ADB834" />
<rect x="70" y="59" width="4" height="2" fill="#FFFFFF" />
<rect x="48" y="61" width="2" height="6" fill="#FFFFFF" />
<rect x="50" y="61" width="2" height="2" fill="#D5DC1D" />
<rect x="54" y="61" width="4" height="2" fill="#7F8E44" />
<rect x="58" y="61" width="2" height="2" fill="#D5DC1D" />
<rect x="60" y="61" width="2" height="2" fill="#ADB834" />
<rect x="62" y="61" width="2" height="2" fill="#7F8E44" />
<rect x="64" y="61" width="2" height="2" fill="#586335" />
<rect x="66" y="61" width="2" height="2" fill="#7F8E44" />
<rect x="68" y="61" width="2" height="2" fill="#ADB834" />
<rect x="70" y="61" width="2" height="2" fill="#7F8E44" />
<rect x="72" y="61" width="4" height="4" fill="#FFFFFF" />
<rect x="46" y="63" width="2" height="14" fill="#FFFFFF" />
<rect x="50" y="63" width="2" height="2" fill="#FFFFFF" />
<rect x="52" y="63" width="2" height="2" fill="#586335" />
<rect x="54" y="63" width="2" height="2" fill="#ADB834" />
<rect x="56" y="63" width="2" height="2" fill="#586335" />
<rect x="58" y="63" width="2" height="2" fill="#ADB834" />
<rect x="60" y="63" width="2" height="2" fill="#7F8E44" />
<rect x="62" y="63" width="2" height="2" fill="#ADB834" />
<rect x="64" y="63" width="2" height="2" fill="#7F8E44" />
<rect x="66" y="63" width="2" height="2" fill="#ADB834" />
<rect x="68" y="63" width="2" height="2" fill="#7F8E44" />
<rect x="70" y="63" width="2" height="2" fill="#D5DC1D" />
<rect x="76" y="63" width="2" height="4" fill="#FFFFFF" />
<rect x="44" y="65" width="2" height="2" fill="#ADB834" />
<rect x="50" y="65" width="2" height="2" fill="#ADB834" />
<rect x="52" y="65" width="2" height="10" fill="#FFFFFF" />
<rect x="54" y="65" width="2" height="2" fill="#7F8E44" />
<rect x="56" y="65" width="10" height="2" fill="#FFFFFF" />
<rect x="66" y="65" width="2" height="2" fill="#7F8E44" />
<rect x="68" y="65" width="4" height="4" fill="#FFFFFF" />
<rect x="72" y="65" width="2" height="2" fill="#ADB834" />
<rect x="74" y="65" width="2" height="6" fill="#FFFFFF" />
<rect x="42" y="67" width="4" height="12" fill="#FFFFFF" />
<rect x="48" y="67" width="2" height="2" fill="#ADB834" />
<rect x="50" y="67" width="2" height="8" fill="#FFFFFF" />
<rect x="54" y="67" width="4" height="8" fill="#FFFFFF" />
<rect x="58" y="67" width="2" height="2" fill="#ADB834" />
<rect x="60" y="67" width="8" height="2" fill="#FFFFFF" />
<rect x="72" y="67" width="2" height="4" fill="#FFFFFF" />
<rect x="76" y="67" width="2" height="2" fill="#7F8E44" />
<rect x="78" y="67" width="4" height="2" fill="#FFFFFF" />
<rect x="48" y="69" width="2" height="8" fill="#FFFFFF" />
<rect x="62" y="69" width="6" height="4" fill="#FFFFFF" />
<rect x="70" y="69" width="2" height="6" fill="#FFFFFF" />
<rect x="76" y="69" width="2" height="6" fill="#FFFFFF" />
<rect x="80" y="69" width="2" height="12" fill="#FFFFFF" />
<rect x="40" y="71" width="2" height="12" fill="#FFFFFF" />
<rect x="58" y="71" width="4" height="4" fill="#FFFFFF" />
<rect x="68" y="71" width="2" height="6" fill="#FFFFFF" />
<rect x="72" y="71" width="4" height="4" fill="#36282B" />
<rect x="62" y="73" width="4" height="2" fill="#FFFFFF" />
<rect x="78" y="73" width="2" height="4" fill="#FFFFFF" />
<rect x="50" y="75" width="6" height="2" fill="#36282B" />
<rect x="56" y="75" width="2" height="2" fill="#FFFFFF" />
<rect x="58" y="75" width="6" height="2" fill="#36282B" />
<rect x="64" y="75" width="4" height="2" fill="#FFFFFF" />
<rect x="70" y="75" width="4" height="4" fill="#36282B" />
<rect x="74" y="75" width="2" height="2" fill="#FFFFFF" />
<rect x="76" y="75" width="2" height="4" fill="#36282B" />
<rect x="82" y="75" width="2" height="6" fill="#FFFFFF" />
<rect x="46" y="77" width="4" height="2" fill="#36282B" />
<rect x="50" y="77" width="4" height="8" fill="#594D4D" />
<rect x="54" y="77" width="2" height="2" fill="#FFFFFF" />
<rect x="56" y="77" width="4" height="2" fill="#36282B" />
<rect x="60" y="77" width="2" height="2" fill="#FFFFFF" />
<rect x="62" y="77" width="8" height="2" fill="#36282B" />
<rect x="74" y="77" width="2" height="2" fill="#594D4D" />
<rect x="78" y="77" width="2" height="4" fill="#36282B" />
<rect x="38" y="79" width="2" height="4" fill="#FFFFFF" />
<rect x="42" y="79" width="2" height="4" fill="#FFFFFF" />
<rect x="44" y="79" width="2" height="2" fill="#36282B" />
<rect x="46" y="79" width="2" height="4" fill="#594D4D" />
<rect x="48" y="79" width="2" height="2" fill="#36282B" />
<rect x="54" y="79" width="4" height="4" fill="#36282B" />
<rect x="58" y="79" width="4" height="12" fill="#594D4D" />
<rect x="62" y="79" width="4" height="2" fill="#36282B" />
<rect x="66" y="79" width="2" height="2" fill="#FFFFFF" />
<rect x="68" y="79" width="2" height="16" fill="#36282B" />
<rect x="70" y="79" width="2" height="2" fill="#FFFFFF" />
<rect x="72" y="79" width="4" height="2" fill="#36282B" />
<rect x="76" y="79" width="2" height="2" fill="#FFFFFF" />
<rect x="44" y="81" width="2" height="4" fill="#594D4D" />
<rect x="48" y="81" width="2" height="2" fill="#FFFFFF" />
<rect x="62" y="81" width="2" height="2" fill="#FFFFFF" />
<rect x="64" y="81" width="4" height="4" fill="#36282B" />
<rect x="70" y="81" width="4" height="12" fill="#36282B" />
<rect x="74" y="81" width="2" height="2" fill="#FFFFFF" />
<rect x="76" y="81" width="4" height="14" fill="#594D4D" />
<rect x="80" y="81" width="6" height="2" fill="#36282B" />
<rect x="38" y="83" width="2" height="16" fill="#2A1E23" />
<rect x="40" y="83" width="4" height="2" fill="#36282B" />
<rect x="46" y="83" width="4" height="2" fill="#36282B" />
<rect x="54" y="83" width="2" height="12" fill="#594D4D" />
<rect x="56" y="83" width="2" height="2" fill="#FFFFFF" />
<rect x="62" y="83" width="2" height="20" fill="#36282B" />
<rect x="74" y="83" width="2" height="8" fill="#36282B" />
<rect x="80" y="83" width="2" height="4" fill="#36282B" />
<rect x="82" y="83" width="2" height="2" fill="#FFFFFF" />
<rect x="84" y="83" width="2" height="12" fill="#36282B" />
<rect x="40" y="85" width="2" height="12" fill="#36282B" />
<rect x="42" y="85" width="2" height="2" fill="#594D4D" />
<rect x="44" y="85" width="2" height="2" fill="#FFFFFF" />
<rect x="46" y="85" width="2" height="4" fill="#36282B" />
<rect x="48" y="85" width="4" height="12" fill="#594D4D" />
<rect x="52" y="85" width="2" height="2" fill="#FFFFFF" />
<rect x="56" y="85" width="2" height="12" fill="#36282B" />
<rect x="64" y="85" width="2" height="2" fill="#FFFFFF" />
<rect x="66" y="85" width="2" height="16" fill="#36282B" />
<rect x="82" y="85" width="2" height="12" fill="#36282B" />
<rect x="42" y="87" width="2" height="2" fill="#FFFFFF" />
<rect x="44" y="87" width="2" height="10" fill="#594D4D" />
<rect x="52" y="87" width="2" height="12" fill="#594D4D" />
<rect x="64" y="87" width="2" height="16" fill="#36282B" />
<rect x="80" y="87" width="2" height="6" fill="#594D4D" />
<rect x="42" y="89" width="2" height="6" fill="#594D4D" />
<rect x="46" y="89" width="2" height="8" fill="#594D4D" />
<rect x="58" y="91" width="4" height="6" fill="#36282B" />
<rect x="74" y="91" width="2" height="4" fill="#594D4D" />
<rect x="70" y="93" width="4" height="4" fill="#594D4D" />
<rect x="80" y="93" width="2" height="6" fill="#36282B" />
<rect x="42" y="95" width="2" height="4" fill="#36282B" />
<rect x="54" y="95" width="2" height="4" fill="#36282B" />
<rect x="68" y="95" width="2" height="4" fill="#594D4D" />
<rect x="74" y="95" width="6" height="4" fill="#36282B" />
<rect x="40" y="97" width="2" height="4" fill="#2A1E23" />
<rect x="44" y="97" width="6" height="2" fill="#36282B" />
<rect x="50" y="97" width="2" height="2" fill="#594D4D" />
<rect x="56" y="97" width="4" height="8" fill="#050403" />
<rect x="60" y="97" width="2" height="4" fill="#36282B" />
<rect x="70" y="97" width="4" height="2" fill="#36282B" />
<rect x="42" y="99" width="4" height="2" fill="#2A1E23" />
<rect x="46" y="99" width="8" height="2" fill="#36282B" />
<rect x="54" y="99" width="2" height="6" fill="#050403" />
<rect x="68" y="99" width="4" height="2" fill="#36282B" />
<rect x="72" y="99" width="6" height="2" fill="#050403" />
<rect x="78" y="99" width="2" height="2" fill="#36282B" />
<rect x="44" y="101" width="6" height="2" fill="#2A1E23" />
<rect x="50" y="101" width="4" height="4" fill="#050403" />
<rect x="60" y="101" width="2" height="4" fill="#050403" />
<rect x="66" y="101" width="10" height="2" fill="#050403" />
<rect x="62" y="103" width="10" height="2" fill="#050403" />
</svg>